<?xml version="1.0" standalone="no"?>
<!DOCTYPE svg PUBLIC "-//W3C//DTD SVG 20010904//EN"
 "http://www.w3.org/TR/2001/REC-SVG-20010904/DTD/svg10.dtd">
<svg version="1.0" xmlns="http://www.w3.org/2000/svg"
 width="87.000000pt" height="87.000000pt" viewBox="0 0 87.000000 87.000000"
 preserveAspectRatio="xMidYMid meet">

<g transform="translate(0.000000,87.000000) scale(0.100000,-0.100000)"
fill="#000000" stroke="none">
<path d="M331 690 c-13 -11 -19 -20 -14 -20 6 0 18 9 28 20 23 25 17 25 -14 0z"/>
<path d="M400 700 c0 -5 5 -10 11 -10 5 0 7 5 4 10 -3 6 -8 10 -11 10 -2 0 -4
-4 -4 -10z"/>
<path d="M421 605 c-4 -61 -5 -64 -8 -23 -2 26 -11 52 -20 60 -14 11 -15 10
-9 -9 20 -61 29 -142 33 -282 3 -130 1 -157 -13 -180 l-16 -26 21 20 c21 20
21 27 18 265 -1 135 -4 214 -6 175z"/>
<path d="M272 604 c-19 -20 -32 -38 -29 -41 3 -3 12 4 19 16 18 29 25 26 34
-11 6 -29 8 -31 14 -12 5 11 5 35 2 52 l-7 31 -33 -35z"/>
<path d="M210 564 c0 -8 5 -12 10 -9 6 4 8 11 5 16 -9 14 -15 11 -15 -7z"/>
<path d="M346 536 c7 -19 -16 -32 -27 -15 -6 10 -9 11 -9 1 0 -8 -8 -10 -25
-6 -14 3 -25 2 -25 -4 0 -5 21 -9 46 -8 39 1 48 5 55 24 6 16 5 22 -6 22 -8 0
-12 -6 -9 -14z"/>
<path d="M315 480 c-4 -6 -2 -16 3 -23 5 -7 9 -19 9 -28 0 -9 7 -32 15 -50 16
-35 17 -60 3 -92 -5 -11 -3 -23 5 -30 10 -9 12 -8 7 5 -3 9 -1 18 5 20 6 2 12
25 13 50 1 26 -2 45 -6 43 -4 -3 -12 9 -18 27 -9 24 -8 34 1 40 9 6 7 10 -9
14 -13 4 -20 11 -16 20 6 16 -3 19 -12 4z"/>
<path d="M287 449 c7 -7 15 -10 18 -7 3 3 -2 9 -12 12 -14 6 -15 5 -6 -5z"/>
<path d="M210 438 c0 -21 12 -29 29 -19 9 6 10 11 2 15 -6 4 -11 4 -11 -1 0
-4 -5 -1 -10 7 -8 13 -10 13 -10 -2z"/>
<path d="M161 424 c0 -11 3 -14 6 -6 3 7 2 16 -1 19 -3 4 -6 -2 -5 -13z"/>
<path d="M260 411 c0 -5 9 -11 21 -14 16 -4 18 -3 8 9 -13 16 -29 19 -29 5z"/>
<path d="M180 400 c-12 -8 -12 -11 2 -27 8 -10 18 -29 22 -43 8 -33 23 -56 32
-48 3 4 4 14 1 23 -4 8 -5 17 -4 19 1 1 -4 10 -11 18 -7 9 -10 23 -6 32 3 9 1
16 -5 16 -6 0 -11 -5 -11 -11 0 -5 -5 -7 -10 -4 -8 5 -7 11 1 21 13 16 10 18
-11 4z"/>
<path d="M235 390 c3 -5 8 -10 11 -10 2 0 4 5 4 10 0 6 -5 10 -11 10 -5 0 -7
-4 -4 -10z"/>
<path d="M390 339 c0 -5 5 -7 10 -4 6 3 10 8 10 11 0 2 -4 4 -10 4 -5 0 -10
-5 -10 -11z"/>
<path d="M262 315 c0 -16 2 -22 5 -12 2 9 2 23 0 30 -3 6 -5 -1 -5 -18z"/>
<path d="M191 293 c7 -12 15 -20 18 -17 3 2 -3 12 -13 22 -17 16 -18 16 -5 -5z"/>
<path d="M267 262 c-8 -12 30 -52 50 -51 14 0 14 2 3 6 -8 3 -23 14 -32 24
-17 17 -17 18 0 22 16 4 16 5 0 6 -9 0 -19 -2 -21 -7z"/>
<path d="M392 230 c0 -14 2 -19 5 -12 2 6 2 18 0 25 -3 6 -5 1 -5 -13z"/>
<path d="M305 179 c-4 -5 3 -9 14 -9 26 0 35 15 11 17 -11 1 -22 -2 -25 -8z"/>
</g>
</svg>
