<svg xmlns="http://www.w3.org/2000/svg" xmlns:xlink="http://www.w3.org/1999/xlink" width="180" height="180" viewBox="0 0 180 22"><defs><style>.a{fill:#fff;}.b{clip-path:url(#a);}.c{fill:#222220;}.d{fill:#d1843a;}</style><clipPath id="a"><rect class="a" width="215" height="22" transform="translate(85 36)"/></clipPath></defs><g class="b" transform="translate(-85 -36)"><path class="c" d="M89.539,48.185H87.575V58H85V36h7.931c4.259,0,6.928,2.5,6.928,6.078s-2.729,6.107-6.928,6.107H92.39L99.962,58H96.99Zm-1.964-1.994h5.272c2.823,0,4.418-1.58,4.418-3.891s-1.6-3.925-4.418-3.925H87.575Z"/><path class="c" d="M117.042,55.626V58H103.55V36h13.305v2.374h-10.7v7.061h9.657v2.374h-9.657v7.817Z"/><path class="c" d="M136.757,36V58h-2.608V47.8H123.326V58h-2.6V36h2.6v9.4h10.823V36Z"/><path class="c" d="M153.375,51.7h-9.014L142.155,58h-2.608l7.726-22h3.158l7.726,22h-2.576Zm-.8-2.215-3.709-10.6-3.732,10.6Z"/><path class="c" d="M176.1,51.893c0,3.737-2.482,6.112-6.807,6.112h-8.337V36h8.524c3.83,0,5.887,2.187,5.887,5.351a5.514,5.514,0,0,1-.911,3.025,5.254,5.254,0,0,1-2.4,1.974,5.538,5.538,0,0,1,4.045,5.539Zm-7.2-13.678h-5.365v7.248h5.244a3.673,3.673,0,0,0,3.984-3.641C172.754,39.7,171.434,38.215,168.891,38.215Zm4.6,13.485c0-2.567-1.777-4.021-4.539-4.021h-5.426v8.105h5.449c2.851,0,4.507-1.522,4.507-4.084"/><path class="c" d="M203.265,38.374v7.152h9.564V47.9h-9.564V58h-2.608V36h13.212v2.374Z"/><path class="c" d="M219.761,36h-2.608V58h2.608Z"/><path class="c" d="M240.821,36V58h-2.174l-11.253-17.28V58h-2.608V36h2.179l11.253,17.314V36Z"/><path class="c" d="M263.97,46.986c0,6.646-4.381,11.014-10.423,11.014h-7.7V36h7.7C259.612,36,263.97,40.334,263.97,46.986Zm-2.636.029c.014-5.235-3.313-8.606-7.847-8.606h-5.029V55.592h5.029C258.021,55.592,261.334,52.3,261.334,47.014Z"/><path class="d" d="M195.162,45.551H180.135v2.326h15.027Z"/><path class="d" d="M188.785,39.313h-2.16v15.02h2.16Z"/></g></svg>